<?xml version="1.0" encoding="utf-8"?>
<!-- Generator: Adobe Illustrator 17.0.0, SVG Export Plug-In . SVG Version: 6.00 Build 0)  -->
<!DOCTYPE svg PUBLIC "-//W3C//DTD SVG 1.1//EN" "http://www.w3.org/Graphics/SVG/1.1/DTD/svg11.dtd">
<svg version="1.1" id="Calque_1" xmlns="http://www.w3.org/2000/svg" xmlns:xlink="http://www.w3.org/1999/xlink" x="0px" y="0px"
	 width="150.667px" height="96.381px" viewBox="0 0 150.667 96.381" enable-background="new 0 0 150.667 96.381"
	 xml:space="preserve">
<g>
	<path fill="none" stroke="#FFFFFF" stroke-width="0.5302" stroke-miterlimit="10" d="M63.68,8.856
		c2.538-0.03,4.785,1.984,4.701,4.756c-0.077,2.527-1.581,4.557-4.803,4.645c-2.558,0.07-4.771-2.112-4.675-4.706
		C58.992,11.129,60.538,8.916,63.68,8.856z"/>
	<g>
		<path fill="none" stroke="#FFFFFF" stroke-width="0.5302" stroke-miterlimit="10" d="M70.617,20.379
			c-0.002,0.009-0.004,0.017-0.006,0.026c-1.684-0.662-3.641-0.346-4.842-1.865c0,0-0.043,0.038-0.112,0.101l-1.422,2.022l0,0
			c0,0.002,1.019,7.823,0.994,7.896c-0.025,0.072-1.641,2.501-1.641,2.501l-1.676-2.216l1.127-8.382c0-0.003,0-0.005,0.001-0.008
			l-1.284-1.99c-0.787,0.482-1.283,0.929-1.86,1.105c-0.901,0.274-1.87,0.319-2.787,0.551l-0.152,0.039
			c-1.607,2.834-2.402,5.947-3.315,9.097c0.005,0.184,0.027,0.356,0.094,0.508c1.007,2.273,2.092,4.512,3.12,6.776
			c0.182,0.4,0.394,0.528,0.828,0.53c3.836,0.015,7.672,0.05,11.507,0.1c0.428,0.006,0.65-0.107,0.839-0.511
			c0.956-2.034,1.97-4.041,2.919-6.079c0.262-0.563,0.386-1.195,0.623-1.99C72.36,26.001,71.812,23.192,70.617,20.379z"/>
	</g>
</g>
<g>
	<path fill="none" stroke="#FFFFFF" stroke-width="0.5302" stroke-miterlimit="10" d="M40.789,8.856
		c2.538-0.03,4.785,1.984,4.701,4.756c-0.077,2.527-1.581,4.557-4.803,4.645c-2.558,0.07-4.771-2.112-4.675-4.706
		C36.101,11.129,37.648,8.916,40.789,8.856z"/>
	<g>
		<path fill="none" stroke="#FFFFFF" stroke-width="0.5302" stroke-miterlimit="10" d="M47.727,20.379
			c-0.002,0.009-0.004,0.017-0.006,0.026c-1.684-0.662-3.641-0.346-4.842-1.865c0,0-0.043,0.038-0.112,0.101l-1.422,2.022l0,0
			c0,0.002,1.019,7.823,0.994,7.896c-0.025,0.072-1.641,2.501-1.641,2.501l-1.676-2.216l1.127-8.382c0-0.003,0-0.005,0.001-0.008
			l-1.284-1.99c-0.787,0.482-1.283,0.929-1.86,1.105c-0.901,0.274-1.87,0.319-2.787,0.551l-0.152,0.039
			c-1.607,2.834-2.402,5.947-3.315,9.097c0.005,0.184,0.027,0.356,0.094,0.508c1.007,2.273,2.092,4.512,3.12,6.776
			c0.182,0.4,0.394,0.528,0.828,0.53c3.836,0.015,7.672,0.05,11.507,0.1c0.428,0.006,0.65-0.107,0.839-0.511
			c0.956-2.034,1.97-4.041,2.919-6.079c0.262-0.563,0.386-1.195,0.623-1.99C49.47,26.001,48.921,23.192,47.727,20.379z"/>
	</g>
</g>
<g>
	<path fill="none" stroke="#FFFFFF" stroke-width="0.5302" stroke-miterlimit="10" d="M110.327,8.856
		c2.538-0.03,4.785,1.984,4.701,4.756c-0.077,2.527-1.581,4.557-4.803,4.645c-2.558,0.07-4.771-2.112-4.675-4.706
		C105.639,11.129,107.185,8.916,110.327,8.856z"/>
	<g>
		<path fill="none" stroke="#FFFFFF" stroke-width="0.5302" stroke-miterlimit="10" d="M117.265,20.379
			c-0.002,0.009-0.004,0.017-0.006,0.026c-1.684-0.662-3.641-0.346-4.842-1.865c0,0-0.043,0.038-0.112,0.101l-1.422,2.022l0,0
			c0,0.002,1.019,7.823,0.994,7.896c-0.025,0.072-1.641,2.501-1.641,2.501l-1.676-2.216l1.127-8.382c0-0.003,0-0.005,0.001-0.008
			l-1.284-1.99c-0.787,0.482-1.283,0.929-1.86,1.105c-0.901,0.274-1.87,0.319-2.787,0.551l-0.152,0.039
			c-1.607,2.834-2.402,5.947-3.315,9.097c0.005,0.184,0.027,0.356,0.094,0.508c1.007,2.273,2.092,4.512,3.12,6.776
			c0.182,0.4,0.394,0.528,0.828,0.53c3.836,0.015,7.672,0.05,11.507,0.1c0.428,0.006,0.65-0.107,0.839-0.511
			c0.956-2.034,1.97-4.041,2.919-6.079c0.262-0.563,0.386-1.195,0.623-1.99C119.008,26.001,118.459,23.192,117.265,20.379z"/>
	</g>
</g>
<path fill="none" stroke="#FFFFFF" stroke-width="0.5302" stroke-miterlimit="10" d="M76.878,40.676
	c0.317-0.697,0.869-0.923,1.617-0.92c4.015,0.02,8.03,0.009,12.045,0.009c0.132,0,0.265,0,0.473,0
	c-0.589,0.47-1.117,0.874-1.625,1.303c-0.406,0.343-0.775,0.729-1.183,1.068c-0.139,0.116-0.347,0.208-0.524,0.209
	c-2.596,0.013-5.193,0.009-7.789,0.009c-0.125,0-0.25,0-0.403,0c0,4.689,0,9.354,0,14.055c0.778,0,1.557,0,2.313,0
	c-0.053,0.872-0.104,1.709-0.158,2.599c-0.194,0-0.404,0-0.615,0c-0.823,0-1.649-0.041-2.469,0.012
	c-0.789,0.051-1.344-0.217-1.682-0.93C76.878,52.286,76.878,46.481,76.878,40.676z"/>
<path fill="#2FAADD" d="M98.703,38.243c0.015,0.019,0.026,0.045,0.046,0.055c0.726,0.364,0.784,1,0.119,1.469
	c-1.618,1.142-3.123,2.417-4.526,3.814c-2.322,2.313-4.215,4.947-5.834,7.787c-0.137,0.241-0.285,0.481-0.464,0.692
	c-0.635,0.748-1.761,0.801-2.413,0.069c-1.254-1.409-2.484-2.842-3.702-4.283c-0.476-0.564-0.402-1.324,0.112-1.819
	c0.499-0.48,1.232-0.516,1.795-0.052c0.674,0.555,1.328,1.136,1.99,1.706c0.152,0.131,0.306,0.26,0.477,0.406
	c0.456-0.631,0.878-1.257,1.342-1.85c2.838-3.628,6.321-6.391,10.701-7.943c0.021-0.007,0.035-0.034,0.052-0.052
	C98.5,38.243,98.601,38.243,98.703,38.243z"/>
<path fill="#2FAADD" d="M82.747,67.86c0-2.244-0.032-4.454,0.017-6.663c0.018-0.799,0.135-1.632,0.371-2.382
	c0.601-1.91,2.241-2.983,3.977-2.72c1.952,0.296,3.215,1.688,3.382,3.837c0.091,1.17,0.066,2.352,0.091,3.529
	c0.006,0.269,0.001,0.539,0.001,0.837c1.14,0.198,2.151,0.629,2.943,1.582c0.07,0.084,0.234,0.086,0.356,0.091
	c1.149,0.041,2.137,0.508,2.982,1.395c0.124,0.131,0.324,0.22,0.495,0.236c2.334,0.21,3.982,2.136,4.163,4.805
	c0.092,1.363-0.285,2.614-0.6,3.875c-0.845,3.389-1.73,6.765-2.614,10.141c-0.378,1.443-1.301,2.208-2.627,2.211
	c-3.259,0.006-6.517-0.007-9.776,0.006c-1.08,0.004-1.84-0.535-2.395-1.568c-1.254-2.334-2.528-4.654-3.806-6.97
	c-0.35-0.634-0.53-1.294-0.521-2.048c0.019-1.667,0.068-3.339-0.011-5.002C79.05,70.42,80.79,68.313,82.747,67.86z M96.32,86.765
	c0.054-0.176,0.101-0.304,0.132-0.438c0.971-4.177,1.946-8.354,2.903-12.535c0.099-0.432,0.126-0.897,0.12-1.346
	c-0.017-1.112-0.878-1.96-1.84-1.85c-0.464,0.053-0.758,0.252-0.76,0.882c-0.004,1.048-0.065,2.097-0.116,3.144
	c-0.032,0.65-0.418,1.032-0.955,0.979c-0.514-0.051-0.833-0.553-0.754-1.183c0.167-1.33,0.328-2.661,0.499-3.991
	c0.099-0.766-0.076-1.22-0.714-1.461c-0.362-0.137-0.779-0.127-1.169-0.108c-0.334,0.016-0.486,0.243-0.464,0.68
	c0.066,1.304,0.091,2.612,0.119,3.918c0.005,0.23-0.014,0.486-0.098,0.688c-0.185,0.443-0.52,0.617-0.948,0.509
	c-0.461-0.117-0.691-0.522-0.67-1.17c0.055-1.682,0.092-3.365,0.179-5.045c0.031-0.591-0.172-0.984-0.607-1.165
	c-0.377-0.157-0.805-0.255-1.201-0.225c-0.631,0.048-0.736,0.293-0.681,1.019c0.14,1.833,0.273,3.667,0.387,5.502
	c0.047,0.759-0.257,1.179-0.79,1.2c-0.565,0.022-0.888-0.389-0.899-1.164c-0.023-1.624-0.042-3.248-0.061-4.872
	c-0.036-3.07-0.056-6.14-0.113-9.209c-0.019-0.997-0.573-1.537-1.45-1.543c-0.803-0.006-1.293,0.522-1.376,1.493
	c-0.02,0.236-0.027,0.474-0.027,0.712c-0.001,4.853-0.002,9.706,0.002,14.559c0.001,0.812,0.037,1.624,0.03,2.436
	c-0.004,0.535-0.374,0.951-0.813,0.98c-0.432,0.028-0.824-0.361-0.884-0.895c-0.02-0.175-0.003-0.355,0.002-0.533
	c0.051-1.801,0.09-3.603,0.163-5.403c0.017-0.423-0.146-0.555-0.456-0.611c-0.987-0.178-1.811,0.687-1.82,1.955
	c-0.014,1.901-0.01,3.803,0.004,5.704c0.002,0.243,0.063,0.515,0.171,0.724c1.264,2.454,2.539,4.902,3.826,7.341
	c0.079,0.15,0.281,0.307,0.426,0.308C89.171,86.769,92.727,86.765,96.32,86.765z"/>
<path fill="none" stroke="#FFFFFF" stroke-width="0.5302" stroke-miterlimit="10" d="M96.117,45.126c0,0.41,0,0.784,0,1.158
	c-0.001,3.751-0.001,7.501-0.002,11.252c0,0.967-0.504,1.47-1.471,1.473c-0.773,0.002-1.546-0.006-2.319,0.004
	c-0.321,0.004-0.447-0.119-0.451-0.45c-0.008-0.703-0.053-1.407-0.084-2.135c0.528,0,1.108,0,1.741,0c0-0.16,0-0.294,0-0.428
	c0-2.61-0.003-5.221,0.007-7.831c0.001-0.173,0.057-0.388,0.167-0.511c0.744-0.829,1.51-1.64,2.271-2.455
	C95.998,45.178,96.035,45.169,96.117,45.126z"/>
<path fill="none" stroke="#FFFFFF" stroke-width="0.5302" stroke-miterlimit="10" d="M71.788,39.749H55.425
	c-0.797,0-1.444,0.646-1.444,1.444v16.364c0,0.797,0.646,1.444,1.444,1.444h16.364c0.797,0,1.444-0.646,1.444-1.444V41.193
	C73.232,40.395,72.586,39.749,71.788,39.749z M70.645,55.357c0,0.583-0.473,1.056-1.056,1.056H57.624
	c-0.583,0-1.056-0.473-1.056-1.056V43.392c0-0.583,0.473-1.056,1.056-1.056H69.59c0.583,0,1.056,0.473,1.056,1.056L70.645,55.357
	L70.645,55.357z"/>
<path fill="none" stroke="#FFFFFF" stroke-width="0.5302" stroke-miterlimit="10" d="M48.898,39.749H32.534
	c-0.797,0-1.444,0.646-1.444,1.444v16.364c0,0.797,0.646,1.444,1.444,1.444h16.364c0.797,0,1.444-0.646,1.444-1.444V41.193
	C50.342,40.395,49.695,39.749,48.898,39.749z M47.755,55.357c0,0.583-0.473,1.056-1.056,1.056H34.733
	c-0.583,0-1.056-0.473-1.056-1.056V43.392c0-0.583,0.473-1.056,1.056-1.056h11.966c0.583,0,1.056,0.473,1.056,1.056V55.357z"/>
<path fill="none" stroke="#FFFFFF" stroke-width="0.5302" stroke-miterlimit="10" d="M118.436,39.749h-16.364
	c-0.797,0-1.444,0.646-1.444,1.444v16.364c0,0.797,0.646,1.444,1.444,1.444h16.364c0.797,0,1.444-0.646,1.444-1.444V41.193
	C119.88,40.395,119.233,39.749,118.436,39.749z M117.293,55.357c0,0.583-0.473,1.056-1.056,1.056h-11.966
	c-0.583,0-1.056-0.473-1.056-1.056V43.392c0-0.583,0.473-1.056,1.056-1.056h11.966c0.583,0,1.056,0.473,1.056,1.056V55.357z"/>
<g opacity="0.4">
	<path fill="none" stroke="#FFFFFF" stroke-width="0.5302" stroke-miterlimit="10" d="M133.127,8.856
		c2.538-0.03,4.785,1.984,4.701,4.756c-0.077,2.527-1.581,4.557-4.803,4.645c-2.558,0.07-4.771-2.112-4.675-4.706
		C128.439,11.129,129.985,8.916,133.127,8.856z"/>
	<g>
		<path fill="none" stroke="#FFFFFF" stroke-width="0.5302" stroke-miterlimit="10" d="M140.064,20.379
			c-0.002,0.009-0.004,0.017-0.006,0.026c-1.684-0.662-3.641-0.346-4.842-1.865c0,0-0.043,0.038-0.112,0.101l-1.422,2.022l0,0
			c0,0.002,1.019,7.823,0.994,7.896c-0.025,0.072-1.641,2.501-1.641,2.501l-1.676-2.216l1.127-8.382c0-0.003,0-0.005,0.001-0.008
			l-1.284-1.99c-0.787,0.482-1.283,0.929-1.86,1.105c-0.901,0.274-1.87,0.319-2.787,0.551l-0.152,0.039
			c-1.607,2.834-2.402,5.947-3.315,9.097c0.005,0.184,0.027,0.356,0.094,0.508c1.007,2.273,2.092,4.512,3.12,6.776
			c0.182,0.4,0.394,0.528,0.828,0.53c3.836,0.015,7.672,0.05,11.507,0.1c0.428,0.006,0.65-0.107,0.839-0.511
			c0.956-2.034,1.97-4.041,2.919-6.079c0.262-0.563,0.386-1.195,0.623-1.99C141.808,26.001,141.259,23.192,140.064,20.379z"/>
	</g>
</g>
<path opacity="0.4" fill="none" stroke="#FFFFFF" stroke-width="0.5302" stroke-miterlimit="10" enable-background="new    " d="
	M141.236,39.749h-16.364c-0.797,0-1.444,0.646-1.444,1.444v16.364c0,0.797,0.646,1.444,1.444,1.444h16.364
	c0.797,0,1.444-0.646,1.444-1.444V41.193C142.679,40.395,142.033,39.749,141.236,39.749z M140.092,55.357
	c0,0.583-0.473,1.056-1.056,1.056H127.07c-0.583,0-1.056-0.473-1.056-1.056V43.392c0-0.583,0.473-1.056,1.056-1.056h11.966
	c0.583,0,1.056,0.473,1.056,1.056V55.357z"/>
<g opacity="0.4">
	<path fill="none" stroke="#FFFFFF" stroke-width="0.5302" stroke-miterlimit="10" d="M17.895,8.856
		c2.538-0.03,4.785,1.984,4.701,4.756c-0.077,2.527-1.581,4.557-4.803,4.645c-2.558,0.07-4.771-2.112-4.675-4.706
		C13.207,11.129,14.754,8.916,17.895,8.856z"/>
	<g>
		<path fill="none" stroke="#FFFFFF" stroke-width="0.5302" stroke-miterlimit="10" d="M24.833,20.379
			c-0.002,0.009-0.004,0.017-0.006,0.026c-1.684-0.662-3.641-0.346-4.842-1.865c0,0-0.043,0.038-0.112,0.101l-1.422,2.022l0,0
			c0,0.002,1.019,7.823,0.994,7.896c-0.025,0.072-1.641,2.501-1.641,2.501l-1.676-2.216l1.127-8.382c0-0.003,0-0.005,0.001-0.008
			l-1.284-1.99c-0.787,0.482-1.283,0.929-1.86,1.105c-0.901,0.274-1.87,0.319-2.787,0.551l-0.152,0.039
			c-1.607,2.834-2.402,5.947-3.315,9.097c0.005,0.184,0.027,0.356,0.094,0.508c1.007,2.273,2.092,4.512,3.12,6.776
			c0.182,0.4,0.394,0.528,0.828,0.53c3.836,0.015,7.672,0.05,11.507,0.1c0.428,0.006,0.65-0.107,0.839-0.511
			c0.956-2.034,1.97-4.041,2.919-6.079c0.262-0.563,0.386-1.195,0.623-1.99C26.576,26.001,26.027,23.192,24.833,20.379z"/>
	</g>
</g>
<path opacity="0.4" fill="none" stroke="#FFFFFF" stroke-width="0.5302" stroke-miterlimit="10" enable-background="new    " d="
	M25.677,39.749H9.313c-0.797,0-1.444,0.646-1.444,1.444v16.364C7.869,58.354,8.516,59,9.313,59h16.364
	c0.797,0,1.444-0.646,1.444-1.444V41.193C27.121,40.395,26.474,39.749,25.677,39.749z M24.533,55.357
	c0,0.583-0.473,1.056-1.056,1.056H11.512c-0.583,0-1.056-0.473-1.056-1.056V43.392c0-0.583,0.473-1.056,1.056-1.056h11.966
	c0.583,0,1.056,0.473,1.056,1.056L24.533,55.357L24.533,55.357z"/>
<g>
	<path fill="#2FAADD" d="M87.046,7.702c2.581-0.031,4.867,2.018,4.781,4.837c-0.078,2.57-1.608,4.635-4.885,4.725
		c-2.602,0.071-4.853-2.148-4.755-4.786C82.278,10.014,83.851,7.763,87.046,7.702z"/>
	<g>
		<path fill="#2FAADD" d="M94.102,19.421c-0.002,0.009-0.004,0.017-0.006,0.026c-1.713-0.674-3.703-0.352-4.925-1.897
			c0,0-0.044,0.038-0.114,0.102l-1.446,2.056l0,0c0,0.002,1.036,7.957,1.011,8.03c-0.025,0.074-1.669,2.544-1.669,2.544
			l-1.704-2.254l1.146-8.525c0-0.003,0-0.005,0.001-0.008l-1.306-2.024c-0.801,0.49-1.304,0.945-1.892,1.123
			c-0.917,0.279-1.902,0.324-2.835,0.561l-0.154,0.04c-1.635,2.882-2.443,6.048-3.371,9.252c0.005,0.187,0.027,0.362,0.096,0.517
			c1.024,2.312,2.127,4.589,3.173,6.892c0.185,0.407,0.401,0.537,0.842,0.539c3.901,0.016,7.803,0.051,11.704,0.102
			c0.436,0.006,0.661-0.109,0.854-0.52c0.972-2.069,2.004-4.11,2.969-6.182c0.267-0.573,0.393-1.216,0.634-2.024
			C95.875,25.14,95.317,22.282,94.102,19.421z"/>
	</g>
</g>
</svg>
