<?xml version="1.0" encoding="utf-8"?>
<!-- Generator: Adobe Illustrator 17.0.0, SVG Export Plug-In . SVG Version: 6.00 Build 0)  -->
<!DOCTYPE svg PUBLIC "-//W3C//DTD SVG 1.1//EN" "http://www.w3.org/Graphics/SVG/1.1/DTD/svg11.dtd">
<svg version="1.1" id="Calque_1" xmlns="http://www.w3.org/2000/svg" xmlns:xlink="http://www.w3.org/1999/xlink" x="0px" y="0px"
	 width="120px" height="71.786px" viewBox="0 10.54 120 71.786" enable-background="new 0 10.54 120 71.786" xml:space="preserve">
<g>
	<g>
		<path fill="none" stroke="#FFFFFF" stroke-width="0.5862" stroke-miterlimit="10" d="M42.045,79.142
			c-1.069-1.087-0.743-2.412-0.632-3.7c0.024-0.278,0.034-0.557,0.055-0.834c0.201-2.591,0.406-5.183,0.602-7.774
			c0.067-0.883,0.15-1.767,0.156-2.651c0.02-2.883,0.007-5.766,0.007-8.65c0-0.273,0-0.546,0-0.819
			c-0.053-0.003-0.106-0.006-0.159-0.009c-0.124,1.008-0.26,2.015-0.369,3.024c-0.215,2.002-0.4,4.008-0.63,6.009
			c-0.073,0.633-0.891,1.194-1.518,1.121c-0.735-0.086-1.338-0.643-1.293-1.342c0.098-1.507,0.258-3.011,0.415-4.513
			c0.149-1.426,0.338-2.848,0.487-4.275c0.222-2.128,0.051-2.484,2.457-3.033c1.761-0.402,3.543-0.941,5.373-0.681
			c1.631,0.232,3.253,0.587,4.845,1.012c0.928,0.248,1.342,0.944,1.384,2.003c0.065,1.627,0.363,3.244,0.553,4.866
			c0.12,1.025,0.219,2.053,0.334,3.079c0.036,0.323,0.085,0.645,0.141,0.965c0.134,0.769-0.21,1.429-0.95,1.784
			c-0.696,0.335-1.253,0.026-1.654-0.494c-0.225-0.291-0.315-0.728-0.36-1.111c-0.229-1.975-0.414-3.956-0.636-5.932
			c-0.094-0.836-0.24-1.666-0.525-2.486c0,0.274,0,0.549,0,0.823c0,2.628-0.078,5.259,0.023,7.883
			c0.093,2.417,0.383,4.826,0.58,7.239c0.113,1.384,0.213,2.769,0.316,4.154c0.054,0.731,0.074,1.465,0.161,2.191
			c0.108,0.898-0.137,1.622-0.891,2.15c-0.562,0-1.123,0-1.685,0c-0.699-0.763-0.881-1.65-0.924-2.688
			c-0.094-2.29-0.368-4.573-0.573-6.859c-0.121-1.352-0.251-2.704-0.377-4.05c-1.172-0.16-1.204-0.118-1.232,0.969
			c-0.022,0.859-0.09,1.718-0.156,2.576c-0.196,2.542-0.452,5.08-0.578,7.625c-0.049,0.994-0.268,1.809-1.062,2.426
			C43.168,79.142,42.607,79.142,42.045,79.142z"/>
		<path fill="none" stroke="#FFFFFF" stroke-width="0.5862" stroke-miterlimit="10" d="M46.19,42.007
			c2.101-0.357,3.686,1.942,3.634,3.403c-0.076,2.1-1.658,4.172-3.639,4.219c-1.706,0.04-3.485-2.232-3.508-4.157
			C42.656,43.827,44.197,41.671,46.19,42.007z"/>
	</g>
	<g>
		<path fill="none" stroke="#FFFFFF" stroke-width="0.5862" stroke-miterlimit="10" d="M24.167,79.142
			c-1.069-1.087-0.743-2.412-0.632-3.7c0.024-0.278,0.034-0.557,0.055-0.834c0.201-2.591,0.406-5.183,0.602-7.774
			c0.067-0.883,0.15-1.767,0.156-2.651c0.02-2.883,0.007-5.766,0.007-8.65c0-0.273,0-0.546,0-0.819
			c-0.053-0.003-0.106-0.006-0.159-0.009c-0.124,1.008-0.26,2.015-0.369,3.024c-0.215,2.002-0.4,4.008-0.63,6.009
			c-0.073,0.633-0.891,1.194-1.518,1.121c-0.735-0.086-1.338-0.643-1.293-1.342c0.098-1.507,0.258-3.011,0.415-4.513
			c0.149-1.426,0.338-2.848,0.487-4.275c0.222-2.128,0.051-2.484,2.457-3.033c1.761-0.402,3.543-0.941,5.373-0.681
			c1.631,0.232,3.253,0.587,4.845,1.012c0.928,0.248,1.342,0.944,1.384,2.003c0.065,1.627,0.363,3.244,0.553,4.866
			c0.12,1.025,0.219,2.053,0.334,3.079c0.036,0.323,0.085,0.645,0.141,0.965c0.134,0.769-0.21,1.429-0.95,1.784
			c-0.696,0.335-1.253,0.026-1.654-0.494c-0.225-0.291-0.315-0.728-0.36-1.111c-0.229-1.975-0.414-3.956-0.636-5.932
			c-0.094-0.836-0.24-1.666-0.525-2.486c0,0.274,0,0.549,0,0.823c0,2.628-0.078,5.259,0.023,7.883
			c0.093,2.417,0.383,4.826,0.58,7.239c0.113,1.384,0.213,2.769,0.316,4.154c0.054,0.731,0.074,1.465,0.161,2.191
			c0.108,0.898-0.137,1.622-0.891,2.15c-0.562,0-1.123,0-1.685,0c-0.699-0.763-0.881-1.65-0.924-2.688
			c-0.094-2.29-0.368-4.573-0.573-6.859c-0.121-1.352-0.251-2.704-0.377-4.05c-1.172-0.16-1.204-0.118-1.232,0.969
			c-0.022,0.859-0.09,1.718-0.156,2.576c-0.196,2.542-0.452,5.08-0.578,7.625c-0.049,0.994-0.268,1.809-1.062,2.426
			C25.29,79.142,24.728,79.142,24.167,79.142z"/>
		<path fill="none" stroke="#FFFFFF" stroke-width="0.5862" stroke-miterlimit="10" d="M28.312,42.007
			c2.101-0.357,3.686,1.942,3.634,3.403c-0.076,2.1-1.658,4.172-3.639,4.219c-1.706,0.04-3.485-2.232-3.508-4.157
			C24.778,43.827,26.319,41.671,28.312,42.007z"/>
	</g>
	<g>
		<path fill="none" stroke="#FFFFFF" stroke-width="0.5862" stroke-miterlimit="10" d="M70.892,79.142
			c-1.069-1.087-0.743-2.412-0.632-3.7c0.024-0.278,0.034-0.557,0.055-0.834c0.201-2.591,0.406-5.183,0.602-7.774
			c0.067-0.883,0.15-1.767,0.156-2.651c0.02-2.883,0.007-5.766,0.007-8.65c0-0.273,0-0.546,0-0.819
			c-0.053-0.003-0.106-0.006-0.159-0.009c-0.124,1.008-0.26,2.015-0.369,3.024c-0.215,2.002-0.4,4.008-0.63,6.009
			c-0.073,0.633-0.891,1.194-1.518,1.121c-0.735-0.086-1.338-0.643-1.293-1.342c0.098-1.507,0.258-3.011,0.415-4.513
			c0.149-1.426,0.338-2.848,0.487-4.275c0.222-2.128,0.051-2.484,2.457-3.033c1.761-0.402,3.543-0.941,5.373-0.681
			c1.631,0.232,3.253,0.587,4.845,1.012c0.928,0.248,1.342,0.944,1.384,2.003c0.065,1.627,0.363,3.244,0.552,4.866
			c0.12,1.025,0.219,2.053,0.334,3.079c0.036,0.323,0.085,0.645,0.141,0.965c0.134,0.769-0.21,1.429-0.95,1.784
			c-0.696,0.335-1.253,0.026-1.654-0.494c-0.225-0.291-0.315-0.728-0.36-1.111c-0.229-1.975-0.414-3.956-0.636-5.932
			c-0.094-0.836-0.24-1.666-0.525-2.486c0,0.274,0,0.549,0,0.823c0,2.628-0.078,5.259,0.023,7.883
			c0.093,2.417,0.383,4.826,0.58,7.239c0.113,1.384,0.213,2.769,0.316,4.154c0.054,0.731,0.074,1.465,0.161,2.191
			c0.108,0.898-0.137,1.622-0.891,2.15c-0.562,0-1.123,0-1.685,0c-0.699-0.763-0.881-1.65-0.924-2.688
			c-0.094-2.29-0.368-4.573-0.573-6.859c-0.121-1.352-0.251-2.704-0.377-4.05c-1.172-0.16-1.204-0.118-1.232,0.969
			c-0.022,0.859-0.09,1.718-0.156,2.576c-0.196,2.542-0.452,5.08-0.578,7.625c-0.049,0.994-0.268,1.809-1.062,2.426
			C72.016,79.142,71.454,79.142,70.892,79.142z"/>
		<path fill="none" stroke="#FFFFFF" stroke-width="0.5862" stroke-miterlimit="10" d="M75.037,42.007
			c2.101-0.357,3.686,1.942,3.634,3.403c-0.076,2.1-1.658,4.172-3.639,4.219c-1.706,0.04-3.485-2.232-3.508-4.157
			C71.504,43.827,73.045,41.671,75.037,42.007z"/>
	</g>
	<g>
		<path fill="none" stroke="#FFFFFF" stroke-width="0.5862" stroke-miterlimit="10" d="M88.511,79.142
			c-1.069-1.087-0.743-2.412-0.632-3.7c0.024-0.278,0.034-0.557,0.055-0.834c0.201-2.591,0.406-5.183,0.602-7.774
			c0.067-0.883,0.15-1.767,0.156-2.651c0.02-2.883,0.007-5.766,0.007-8.65c0-0.273,0-0.546,0-0.819
			c-0.053-0.003-0.106-0.006-0.159-0.009c-0.124,1.008-0.26,2.015-0.369,3.024c-0.215,2.002-0.4,4.008-0.63,6.009
			c-0.073,0.633-0.891,1.194-1.518,1.121c-0.735-0.086-1.338-0.643-1.293-1.342c0.098-1.507,0.258-3.011,0.415-4.513
			c0.149-1.426,0.338-2.848,0.487-4.275c0.222-2.128,0.051-2.484,2.457-3.033c1.761-0.402,3.543-0.941,5.373-0.681
			c1.631,0.232,3.253,0.587,4.845,1.012c0.928,0.248,1.342,0.944,1.384,2.003c0.065,1.627,0.363,3.244,0.552,4.866
			c0.12,1.025,0.219,2.053,0.334,3.079c0.036,0.323,0.085,0.645,0.141,0.965c0.134,0.769-0.21,1.429-0.95,1.784
			c-0.696,0.335-1.253,0.026-1.654-0.494c-0.225-0.291-0.315-0.728-0.36-1.111c-0.229-1.975-0.414-3.956-0.636-5.932
			c-0.094-0.836-0.24-1.666-0.525-2.486c0,0.274,0,0.549,0,0.823c0,2.628-0.078,5.259,0.023,7.883
			c0.093,2.417,0.383,4.826,0.58,7.239c0.113,1.384,0.213,2.769,0.316,4.154c0.054,0.731,0.074,1.465,0.161,2.191
			c0.108,0.898-0.137,1.622-0.891,2.15c-0.562,0-1.123,0-1.685,0c-0.699-0.763-0.881-1.65-0.924-2.688
			c-0.094-2.29-0.368-4.573-0.573-6.859c-0.121-1.352-0.251-2.704-0.377-4.05c-1.172-0.16-1.203-0.118-1.232,0.969
			c-0.022,0.859-0.09,1.718-0.156,2.576c-0.196,2.542-0.452,5.08-0.578,7.625c-0.049,0.994-0.268,1.809-1.062,2.426
			C89.635,79.142,89.073,79.142,88.511,79.142z"/>
		<path fill="none" stroke="#FFFFFF" stroke-width="0.5862" stroke-miterlimit="10" d="M92.657,42.007
			c2.101-0.357,3.686,1.942,3.634,3.403c-0.076,2.1-1.658,4.172-3.639,4.219c-1.706,0.04-3.485-2.232-3.508-4.157
			C89.123,43.827,90.664,41.671,92.657,42.007z"/>
	</g>
	<g opacity="0.3">
		<path fill="none" stroke="#FFFFFF" stroke-width="0.5862" stroke-miterlimit="10" d="M106.124,79.142
			c-1.069-1.087-0.743-2.412-0.632-3.7c0.024-0.278,0.034-0.557,0.055-0.834c0.201-2.591,0.406-5.183,0.602-7.774
			c0.067-0.883,0.15-1.767,0.156-2.651c0.02-2.883,0.007-5.766,0.007-8.65c0-0.273,0-0.546,0-0.819
			c-0.053-0.003-0.106-0.006-0.159-0.009c-0.124,1.008-0.26,2.015-0.369,3.024c-0.215,2.002-0.4,4.008-0.63,6.009
			c-0.073,0.633-0.891,1.194-1.518,1.121c-0.735-0.086-1.338-0.643-1.293-1.342c0.098-1.507,0.258-3.011,0.415-4.513
			c0.149-1.426,0.338-2.848,0.487-4.275c0.222-2.128,0.051-2.484,2.457-3.033c1.761-0.402,3.543-0.941,5.373-0.681
			c1.631,0.232,3.253,0.587,4.845,1.012c0.928,0.248,1.342,0.944,1.384,2.003c0.065,1.627,0.363,3.244,0.552,4.866
			c0.12,1.025,0.219,2.053,0.334,3.079c0.036,0.323,0.085,0.645,0.141,0.965c0.134,0.769-0.21,1.429-0.95,1.784
			c-0.696,0.335-1.253,0.026-1.654-0.494c-0.225-0.291-0.315-0.728-0.36-1.111c-0.229-1.975-0.414-3.956-0.636-5.932
			c-0.094-0.836-0.24-1.666-0.525-2.486c0,0.274,0,0.549,0,0.823c0,2.628-0.078,5.259,0.023,7.883
			c0.093,2.417,0.383,4.826,0.58,7.239c0.113,1.384,0.213,2.769,0.316,4.154c0.054,0.731,0.074,1.465,0.161,2.191
			c0.108,0.898-0.137,1.622-0.891,2.15c-0.562,0-1.123,0-1.685,0c-0.699-0.763-0.881-1.65-0.924-2.688
			c-0.094-2.29-0.368-4.573-0.573-6.859c-0.121-1.352-0.251-2.704-0.377-4.05c-1.172-0.16-1.203-0.118-1.232,0.969
			c-0.022,0.859-0.09,1.718-0.156,2.576c-0.196,2.542-0.452,5.08-0.578,7.625c-0.049,0.994-0.268,1.809-1.062,2.426
			C107.248,79.142,106.686,79.142,106.124,79.142z"/>
		<path fill="none" stroke="#FFFFFF" stroke-width="0.5862" stroke-miterlimit="10" d="M110.269,42.007
			c2.101-0.357,3.686,1.942,3.634,3.403c-0.076,2.1-1.658,4.172-3.639,4.219c-1.706,0.04-3.485-2.232-3.508-4.157
			C106.736,43.827,108.277,41.671,110.269,42.007z"/>
	</g>
	<g opacity="0.3">
		<path fill="none" stroke="#FFFFFF" stroke-width="0.5862" stroke-miterlimit="10" d="M6.05,79.142
			c-1.069-1.087-0.743-2.412-0.632-3.7c0.024-0.278,0.034-0.557,0.055-0.834c0.201-2.591,0.406-5.183,0.602-7.774
			c0.067-0.883,0.15-1.767,0.156-2.651c0.02-2.883,0.007-5.766,0.007-8.65c0-0.273,0-0.546,0-0.819
			c-0.053-0.003-0.106-0.006-0.159-0.009c-0.124,1.008-0.26,2.015-0.369,3.024c-0.215,2.002-0.4,4.008-0.63,6.009
			c-0.073,0.633-0.891,1.194-1.518,1.121c-0.735-0.086-1.338-0.643-1.293-1.342c0.098-1.507,0.258-3.011,0.415-4.513
			c0.149-1.426,0.338-2.848,0.487-4.275c0.222-2.128,0.051-2.484,2.457-3.033c1.761-0.402,3.543-0.941,5.373-0.681
			c1.631,0.232,3.253,0.587,4.845,1.012c0.928,0.248,1.342,0.944,1.384,2.003c0.065,1.627,0.363,3.244,0.553,4.866
			c0.12,1.025,0.219,2.053,0.334,3.079c0.036,0.323,0.085,0.645,0.141,0.965c0.134,0.769-0.21,1.429-0.95,1.784
			c-0.696,0.335-1.253,0.026-1.654-0.494c-0.225-0.291-0.315-0.728-0.36-1.111c-0.229-1.975-0.414-3.956-0.636-5.932
			c-0.094-0.836-0.24-1.666-0.525-2.486c0,0.274,0,0.549,0,0.823c0,2.628-0.078,5.259,0.023,7.883
			c0.093,2.417,0.383,4.826,0.58,7.239c0.113,1.384,0.213,2.769,0.316,4.154c0.054,0.731,0.074,1.465,0.161,2.191
			c0.108,0.898-0.137,1.622-0.891,2.15c-0.562,0-1.123,0-1.685,0c-0.699-0.763-0.881-1.65-0.924-2.688
			c-0.094-2.29-0.368-4.573-0.573-6.859c-0.121-1.352-0.251-2.704-0.377-4.05c-1.172-0.16-1.204-0.118-1.232,0.969
			c-0.022,0.859-0.09,1.718-0.156,2.576c-0.196,2.542-0.452,5.08-0.578,7.625c-0.049,0.994-0.268,1.809-1.062,2.426
			C7.173,79.142,6.611,79.142,6.05,79.142z"/>
		<path fill="none" stroke="#FFFFFF" stroke-width="0.5862" stroke-miterlimit="10" d="M10.195,42.007
			c2.101-0.357,3.686,1.942,3.634,3.403c-0.076,2.1-1.658,4.172-3.639,4.219c-1.706,0.04-3.485-2.232-3.508-4.157
			C6.661,43.827,8.202,41.671,10.195,42.007z"/>
	</g>
	<g>
		<g>
			<path fill="#2EA9DD" d="M57.292,59.751c1.453,0.666,2.792,1.275,4.127,1.893c1.213,0.561,1.686,1.557,1.252,2.611
				c-0.453,1.099-1.531,1.505-2.79,1.021c-2.837-1.091-5.669-2.195-8.501-3.296c-0.9-0.35-1.558-0.905-1.647-1.948
				c-0.095-1.111,0.443-1.826,1.388-2.318c1.952-1.015,3.89-2.056,5.85-3.054c0.431-0.219,0.619-0.447,0.589-0.956
				c-0.147-2.443-0.243-4.889-0.385-7.332c-0.013-0.226-0.16-0.541-0.341-0.646c-3.314-1.916-5.423-4.923-7.34-8.096
				c-0.653-1.082-1.228-2.215-1.782-3.351c-0.491-1.006-0.2-1.955,0.657-2.416c0.905-0.487,1.822-0.132,2.452,0.82
				c1.347,2.034,2.689,4.076,4.141,6.034c1.049,1.415,2.398,2.539,4.004,3.337c0.26,0.129,0.461,0.515,0.551,0.822
				c0.423,1.439,0.797,2.892,1.31,4.336c0.048-1.395,1.153-2.758,0.023-4.218c0.231-0.735,0.84-0.809,1.499-0.713
				c0.519,0.075,0.821,0.687,0.491,1.041c-0.412,0.442-0.396,0.867-0.274,1.407c0.192,0.849,0.285,1.719,0.566,2.603
				c0.399-1.474,0.813-2.945,1.189-4.425c0.127-0.5,0.363-0.79,0.852-1.031c1.976-0.974,3.419-2.582,4.69-4.317
				c1.12-1.529,2.108-3.157,3.117-4.765c0.653-1.041,1.57-1.425,2.487-0.949c0.91,0.472,1.178,1.469,0.633,2.57
				c-1.831,3.699-3.931,7.211-7.111,9.946c-0.343,0.295-0.679,0.654-1.085,0.806c-1.165,0.437-1.324,1.275-1.33,2.401
				c-0.013,2.264-0.227,4.525-0.297,6.79c-0.011,0.346,0.218,0.806,0.487,1.037c1.834,1.574,3.72,3.087,5.565,4.648
				c1.517,1.284,1.432,2.853-0.184,3.979c-2.576,1.796-5.153,3.59-7.732,5.381c-1.173,0.814-2.345,0.707-3.031-0.265
				c-0.687-0.974-0.45-2.029,0.651-2.907c1.7-1.357,3.399-2.714,5.096-4.073c0.044-0.036,0.066-0.1,0.138-0.216
				c-1.719-1.343-3.441-2.696-5.178-4.028c-0.16-0.123-0.474-0.212-0.636-0.139C60.088,58.393,58.74,59.056,57.292,59.751z"/>
		</g>
	</g>
	<path fill="#FFFFFF" d="M73.005,12.687c0.016,0.02,0.028,0.048,0.048,0.058c0.762,0.382,0.823,1.049,0.125,1.542
		c-1.698,1.198-3.278,2.536-4.75,4.003c-2.437,2.428-4.423,5.191-6.122,8.171c-0.144,0.253-0.299,0.505-0.487,0.726
		c-0.667,0.785-1.848,0.841-2.532,0.073c-1.316-1.479-2.606-2.982-3.884-4.495c-0.5-0.592-0.422-1.389,0.118-1.909
		c0.524-0.504,1.293-0.541,1.883-0.055c0.708,0.583,1.393,1.193,2.089,1.79c0.16,0.137,0.321,0.273,0.501,0.426
		c0.479-0.662,0.921-1.319,1.408-1.941c2.978-3.807,6.633-6.706,11.229-8.336c0.022-0.008,0.036-0.036,0.054-0.055
		C72.792,12.687,72.899,12.687,73.005,12.687z"/>
</g>
<path fill="#2EA9DD" d="M62.064,33.145c2.059-0.35,3.614,1.904,3.562,3.336c-0.074,2.059-1.626,4.09-3.568,4.136
	c-1.672,0.039-3.417-2.188-3.439-4.075C58.6,34.929,60.111,32.816,62.064,33.145z"/>
</svg>
