<?xml version="1.0" encoding="utf-8"?>
<!-- Generator: Adobe Illustrator 17.0.0, SVG Export Plug-In . SVG Version: 6.00 Build 0)  -->
<!DOCTYPE svg PUBLIC "-//W3C//DTD SVG 1.1//EN" "http://www.w3.org/Graphics/SVG/1.1/DTD/svg11.dtd">
<svg version="1.1" id="Calque_1" xmlns="http://www.w3.org/2000/svg" xmlns:xlink="http://www.w3.org/1999/xlink" x="0px" y="0px"
	 width="110.5px" height="83.5px" viewBox="0 0 110.5 83.5" enable-background="new 0 0 110.5 83.5" xml:space="preserve">
<g>
	<path fill="#2EA9DD" d="M107.394,2.554l-69.33,43.717c0,0-2.606,2.976-7.819,0S5.484,32.309,5.484,32.309s-2.606,0-1.564,1.831
		c1.043,1.831,28.931,44.862,28.931,44.862s0.782,3.204,4.431,0C40.931,75.797,107.394,2.554,107.394,2.554z"/>
	<path fill="#276DAC" d="M106.481,3.129L39.249,61.618c0,0-2.707,2.071-7.546-0.543S5.491,32.571,5.491,32.571
		s-2.515-0.181-1.627,1.277s28.943,45.379,28.943,45.379s0.548,2.48,4.276,0.308S106.481,3.129,106.481,3.129z"/>
</g>
</svg>
