<?xml version="1.0" encoding="utf-8"?>
<!-- Generator: Adobe Illustrator 17.0.0, SVG Export Plug-In . SVG Version: 6.00 Build 0)  -->
<!DOCTYPE svg PUBLIC "-//W3C//DTD SVG 1.1//EN" "http://www.w3.org/Graphics/SVG/1.1/DTD/svg11.dtd">
<svg version="1.1" id="Calque_1" xmlns="http://www.w3.org/2000/svg" xmlns:xlink="http://www.w3.org/1999/xlink" x="0px" y="0px"
	 width="287.97px" height="37.833px" viewBox="0 0 287.97 37.833" enable-background="new 0 0 287.97 37.833" xml:space="preserve">
<path fill="#FFFFFF" d="M286.074,33.255c0,1.566-1.269,2.835-2.835,2.835H4.731c-1.566,0-2.835-1.269-2.835-2.835V3.842
	c0-1.566,1.269-2.835,2.835-2.835h278.509c1.566,0,2.835,1.269,2.835,2.835V33.255z"/>
<g>
	<g>
		<path fill="#2FAADD" d="M14.388,29.82c-1.24,0-2.294-0.129-3.162-0.388c-0.868-0.258-1.576-0.62-2.123-1.085
			c-0.548-0.465-0.945-1.018-1.193-1.658c-0.248-0.641-0.372-1.354-0.372-2.139V13.266c0-0.785,0.124-1.499,0.372-2.139
			c0.248-0.64,0.646-1.193,1.193-1.659c0.547-0.465,1.255-0.826,2.123-1.085c0.868-0.258,1.922-0.387,3.162-0.387h17.577v3.224
			H14.388c-1.818,0-2.728,0.672-2.728,2.015v11.346c0,1.343,0.909,2.015,2.728,2.015h17.577v3.224H14.388z"/>
		<path fill="#2FAADD" d="M40.877,29.82c-1.24,0-2.294-0.129-3.162-0.388c-0.868-0.258-1.576-0.62-2.123-1.085
			c-0.548-0.465-0.945-1.018-1.193-1.658s-0.372-1.354-0.372-2.139V13.266c0-0.785,0.124-1.499,0.372-2.139
			c0.248-0.64,0.646-1.193,1.193-1.659c0.547-0.465,1.255-0.826,2.123-1.085c0.868-0.258,1.922-0.387,3.162-0.387h14.415
			c1.24,0,2.294,0.129,3.162,0.387c0.868,0.259,1.575,0.62,2.123,1.085c0.548,0.465,0.945,1.019,1.193,1.659
			c0.248,0.641,0.372,1.354,0.372,2.139V24.55c0,0.786-0.124,1.499-0.372,2.139s-0.646,1.193-1.193,1.658
			c-0.548,0.465-1.255,0.827-2.123,1.085c-0.868,0.259-1.922,0.388-3.162,0.388H40.877z M58.019,13.235
			c0-1.343-0.909-2.015-2.728-2.015H40.877c-1.818,0-2.728,0.672-2.728,2.015v11.346c0,1.343,0.909,2.015,2.728,2.015h14.415
			c1.818,0,2.728-0.671,2.728-2.015V13.235z"/>
		<path fill="#2FAADD" d="M71.055,29.82c-1.24,0-2.294-0.129-3.162-0.388c-0.868-0.258-1.576-0.62-2.123-1.085
			c-0.548-0.465-0.945-1.018-1.193-1.658s-0.372-1.354-0.372-2.139V13.266c0-0.785,0.124-1.499,0.372-2.139
			c0.248-0.64,0.646-1.193,1.193-1.659c0.547-0.465,1.255-0.826,2.123-1.085c0.868-0.258,1.922-0.387,3.162-0.387H85.47
			c1.24,0,2.294,0.129,3.162,0.387c0.868,0.259,1.575,0.62,2.123,1.085c0.548,0.465,0.945,1.019,1.193,1.659
			c0.248,0.641,0.372,1.354,0.372,2.139V24.55c0,0.786-0.124,1.499-0.372,2.139s-0.646,1.193-1.193,1.658
			c-0.548,0.465-1.255,0.827-2.123,1.085c-0.868,0.259-1.922,0.388-3.162,0.388H71.055z M88.197,13.235
			c0-1.343-0.909-2.015-2.728-2.015H71.055c-1.818,0-2.728,0.672-2.728,2.015v11.346c0,1.343,0.909,2.015,2.728,2.015H85.47
			c1.818,0,2.728-0.671,2.728-2.015V13.235z"/>
		<path fill="#2FAADD" d="M98.505,21.76v8.06h-4.123V7.996h17.888c1.239,0,2.294,0.129,3.161,0.387
			c0.868,0.259,1.576,0.62,2.124,1.085c0.547,0.465,0.945,1.019,1.193,1.659c0.248,0.641,0.372,1.354,0.372,2.139v3.224
			c0,0.786-0.124,1.499-0.372,2.139c-0.248,0.641-0.646,1.193-1.193,1.659c-0.548,0.465-1.256,0.827-2.124,1.085
			c-0.867,0.258-1.922,0.387-3.161,0.387H98.505z M114.997,13.235c0-1.343-0.909-2.015-2.728-2.015H98.505v7.316h13.765
			c1.818,0,2.728-0.671,2.728-2.015V13.235z"/>
		<path fill="#203360" d="M131.396,29.82v-18.6h-11.439V7.996h26.691v3.224h-11.129v18.6H131.396z"/>
		<path fill="#203360" d="M168.683,29.82L157.43,12.243L145.991,29.82h-4.588l14.508-21.824h3.007l14.415,21.824H168.683z"/>
		<path fill="#203360" d="M174.113,29.82V7.996h4.154v18.6h17.701v3.224H174.113z"/>
		<path fill="#203360" d="M198.03,29.82V7.996h22.444v3.224h-18.321v5.456h17.392V19.9h-17.392v6.696h18.321v3.224H198.03z"/>
		<path fill="#203360" d="M249.413,29.82l-23.28-16.988V29.82h-3.597V7.996h3.565l21.73,16.213V7.996h3.597V29.82H249.413z"/>
		<path fill="#203360" d="M264.93,29.781v-18.6H253.49V7.958h26.691v3.224h-11.129v18.6H264.93z"/>
	</g>
	<g>
		<path fill="#2FAADD" d="M187.826,2.469l-29.272,18.458c0,0-1.1,1.256-3.301,0c-2.201-1.256-10.454-5.895-10.454-5.895
			s-1.1,0-0.66,0.773c0.44,0.773,12.215,18.941,12.215,18.941s0.33,1.353,1.871,0C159.765,33.393,187.826,2.469,187.826,2.469z"/>
		<path fill="#276DAC" d="M187.441,2.712l-28.386,24.694c0,0-1.143,0.874-3.186-0.229s-11.067-12.035-11.067-12.035
			s-1.062-0.076-0.687,0.539c0.375,0.616,12.22,19.159,12.22,19.159s0.231,1.047,1.805,0.13
			C159.714,34.053,187.441,2.712,187.441,2.712z"/>
	</g>
</g>
</svg>
