<?xml version="1.0" encoding="utf-8"?>
<!-- Generator: Adobe Illustrator 17.0.0, SVG Export Plug-In . SVG Version: 6.00 Build 0)  -->
<!DOCTYPE svg PUBLIC "-//W3C//DTD SVG 1.1//EN" "http://www.w3.org/Graphics/SVG/1.1/DTD/svg11.dtd">
<svg version="1.1" id="Calque_1" xmlns="http://www.w3.org/2000/svg" xmlns:xlink="http://www.w3.org/1999/xlink" x="0px" y="0px"
	 width="8.5px" height="6.989px" viewBox="3.328 6.282 8.5 6.989" enable-background="new 3.328 6.282 8.5 6.989"
	 xml:space="preserve">
<g>
	<path fill="#727270" d="M9.836,10.768c-0.036-0.019-0.115,0.011-0.156,0.043c-0.218,0.168-0.381,0.365-0.32,0.671
		c0.013,0.064-0.001,0.132,0.002,0.198c0.026,0.489-0.364,0.817-0.809,0.81c-1.216-0.02-2.433-0.006-3.649-0.007
		c-0.504,0-0.799-0.292-0.799-0.792c-0.001-1.216,0.01-2.433-0.006-3.649C4.093,7.609,4.422,7.226,4.913,7.234
		c1.21,0.02,2.421,0.006,3.631,0.007c0.09,0,0.18,0.005,0.27,0.015c0.131,0.014,0.428-0.219,0.419-0.348
		C9.228,6.856,9.176,6.779,9.129,6.765c-0.153-0.047-0.313-0.099-0.471-0.1C7.369,6.657,6.081,6.66,4.792,6.661
		c-0.315,0-0.583,0.119-0.821,0.322C3.722,7.196,3.599,7.476,3.523,7.784c0,1.385,0,2.771,0,4.156
		c0.012,0.039,0.027,0.077,0.035,0.117c0.115,0.54,0.635,0.999,1.18,1.003C6.069,13.07,7.4,13.071,8.73,13.06
		c0.586-0.005,1.144-0.532,1.189-1.112c0.027-0.341,0.015-0.686,0.01-1.029C9.929,10.866,9.882,10.792,9.836,10.768z"/>
	<path fill="#727270" d="M10.754,6.765c-0.128-0.125-0.354-0.101-0.5,0.026c-0.157,0.137-0.297,0.292-0.423,0.418
		c0.44,0.439,0.871,0.87,1.322,1.32c0.16-0.191,0.331-0.396,0.503-0.601c0-0.072,0-0.145,0-0.217
		C11.356,7.395,11.066,7.068,10.754,6.765z"/>
	<path fill="#727270" d="M9.446,7.588c-0.975,0.974-1.95,1.949-2.923,2.925c-0.035,0.035-0.073,0.088-0.074,0.134
		c-0.006,0.414-0.003,0.827-0.003,1.258c0.396,0,0.774,0.007,1.151-0.005c0.089-0.003,0.199-0.048,0.262-0.111
		c0.95-0.94,1.893-1.887,2.838-2.832c0.037-0.037,0.069-0.078,0.096-0.108c-0.438-0.441-0.865-0.871-1.295-1.304
		C9.483,7.557,9.463,7.571,9.446,7.588z M7.625,11.407c-0.069,0.056-0.182,0.059-0.3,0.094c0-0.172,0-0.307,0-0.462
		c-0.151,0-0.286,0-0.417,0c-0.06-0.312-0.115-0.182,0.494-0.777c0.224,0.225,0.448,0.449,0.694,0.696
		C7.939,11.111,7.792,11.271,7.625,11.407z M9.644,8.217C9.591,8.294,9.57,8.337,9.537,8.37C9.032,8.878,8.526,9.386,8.014,9.887
		C7.975,9.925,7.886,9.913,7.821,9.924c0.017-0.06,0.016-0.139,0.055-0.178c0.502-0.511,1.01-1.017,1.519-1.522
		C9.428,8.19,9.483,8.164,9.531,8.16C9.565,8.157,9.603,8.195,9.644,8.217z"/>
</g>
</svg>
