<?xml version="1.0" encoding="utf-8"?>
<!-- Generator: Adobe Illustrator 17.0.0, SVG Export Plug-In . SVG Version: 6.00 Build 0)  -->
<!DOCTYPE svg PUBLIC "-//W3C//DTD SVG 1.1//EN" "http://www.w3.org/Graphics/SVG/1.1/DTD/svg11.dtd">
<svg version="1.1" id="Calque_1" xmlns="http://www.w3.org/2000/svg" xmlns:xlink="http://www.w3.org/1999/xlink" x="0px" y="0px"
	 width="50.423px" height="40.593px" viewBox="1.399 -26.026 50.423 40.593" enable-background="new 1.399 -26.026 50.423 40.593"
	 xml:space="preserve">
<g>
	<path fill="#203360" d="M2.663-17.855c0.45-1.835,1.187-3.499,2.668-4.768c1.414-1.211,3.009-1.918,4.885-1.919
		c7.671-0.004,15.343-0.023,23.014,0.023c0.939,0.006,1.893,0.314,2.805,0.597c0.276,0.086,0.589,0.545,0.613,0.855
		c0.059,0.765-1.711,2.156-2.491,2.072c-0.533-0.058-1.071-0.09-1.606-0.09c-7.205-0.006-14.412,0.077-21.615-0.043
		c-2.92-0.049-4.879,2.234-4.846,4.81C6.18-9.079,6.116-1.837,6.123,5.404c0.003,2.976,1.757,4.713,4.756,4.715
		c7.241,0.006,14.483-0.076,21.723,0.043c2.649,0.043,4.97-1.911,4.813-4.822c-0.021-0.393,0.062-0.801-0.013-1.181
		c-0.362-1.818,0.612-2.991,1.908-3.993c0.247-0.191,0.717-0.37,0.93-0.258c0.276,0.144,0.554,0.582,0.559,0.897
		c0.029,2.042,0.097,4.093-0.061,6.125c-0.268,3.452-3.587,6.591-7.076,6.62c-7.922,0.066-15.844,0.058-23.766,0.004
		c-3.242-0.022-6.338-2.757-7.021-5.972c-0.05-0.236-0.139-0.464-0.209-0.696C2.663-1.361,2.663-9.608,2.663-17.855z"/>
	<path fill="#203360" d="M51.07-16.994c-1.022,1.221-2.044,2.442-2.993,3.577c-2.684-2.681-5.251-5.245-7.868-7.859
		c0.752-0.751,1.587-1.677,2.52-2.491c0.866-0.755,2.209-0.9,2.974-0.156c1.859,1.807,3.586,3.749,5.367,5.637
		C51.07-17.855,51.07-17.425,51.07-16.994z"/>
	<path fill="#203360" d="M38.227-19.279c2.558,2.576,5.102,5.137,7.706,7.76c-0.16,0.182-0.352,0.426-0.569,0.643
		C39.742-5.249,34.126,0.384,28.473,5.981c-0.377,0.374-1.027,0.643-1.559,0.66c-2.246,0.072-4.495,0.031-6.85,0.031
		c0-2.565-0.014-5.027,0.02-7.489c0.004-0.27,0.23-0.586,0.438-0.796c5.793-5.811,11.597-11.611,17.401-17.411
		C38.022-19.124,38.14-19.207,38.227-19.279z M29.885,1.039c-1.466-1.469-2.799-2.806-4.134-4.144
		c-3.627,3.544-3.298,2.768-2.941,4.624c0.777,0,1.581,0,2.481,0c0,0.921,0,1.727,0,2.749c0.705-0.206,1.375-0.224,1.787-0.558
		C28.073,2.903,28.948,1.948,29.885,1.039z M39.098-15.275c-0.242-0.133-0.469-0.363-0.673-0.343
		c-0.284,0.027-0.61,0.179-0.815,0.382c-3.029,3.004-6.049,6.018-9.039,9.06c-0.23,0.234-0.222,0.7-0.325,1.059
		c0.39-0.066,0.916,0.007,1.149-0.221c3.049-2.984,6.058-6.009,9.07-9.031C38.656-14.561,38.783-14.819,39.098-15.275z"/>
	<path fill="#FFFFFF" d="M29.885,1.039c-0.937,0.909-1.812,1.864-2.806,2.671c-0.412,0.334-1.082,0.352-1.787,0.558
		c0-1.021,0-1.827,0-2.749c-0.9,0-1.704,0-2.481,0c-0.357-1.857-0.687-1.08,2.941-4.624C27.086-1.767,28.419-0.43,29.885,1.039z"/>
	<path fill="#FFFFFF" d="M39.098-15.275c-0.315,0.456-0.442,0.714-0.634,0.906c-3.011,3.022-6.021,6.047-9.07,9.031
		c-0.232,0.227-0.759,0.154-1.149,0.221c0.103-0.358,0.096-0.825,0.325-1.059c2.99-3.042,6.01-6.056,9.039-9.06
		c0.205-0.203,0.531-0.356,0.815-0.382C38.629-15.637,38.856-15.407,39.098-15.275z"/>
</g>
</svg>
