<?xml version="1.0" encoding="utf-8"?>
<!-- Generator: Adobe Illustrator 17.0.0, SVG Export Plug-In . SVG Version: 6.00 Build 0)  -->
<!DOCTYPE svg PUBLIC "-//W3C//DTD SVG 1.1//EN" "http://www.w3.org/Graphics/SVG/1.1/DTD/svg11.dtd">
<svg version="1.1" id="Calque_1" xmlns="http://www.w3.org/2000/svg" xmlns:xlink="http://www.w3.org/1999/xlink" x="0px" y="0px"
	 width="15.906px" height="15.667px" viewBox="0 0 15.906 15.667" enable-background="new 0 0 15.906 15.667" xml:space="preserve">
<g>
	<g>
		<g>
			<g>
				<path fill="#39AADC" d="M5.959,10.723c-1.392,0-2.7-0.542-3.684-1.526c-2.031-2.031-2.031-5.336,0-7.367
					c0.983-0.983,2.292-1.525,3.684-1.525s2.7,0.542,3.684,1.525c2.031,2.031,2.031,5.336,0,7.368
					C8.66,10.181,7.351,10.723,5.959,10.723z M5.959,0.7c-1.286,0-2.495,0.501-3.404,1.41c-1.877,1.877-1.877,4.931,0,6.808
					c0.909,0.909,2.118,1.41,3.404,1.41s2.495-0.501,3.404-1.41c1.877-1.877,1.877-4.931,0-6.808C8.455,1.201,7.246,0.7,5.959,0.7z"
					/>
			</g>
			<g>
				<path fill="#39AADC" d="M5.959,9.404c-1.039,0-2.017-0.405-2.751-1.139c-1.518-1.517-1.518-3.986,0-5.502
					c0.734-0.735,1.712-1.14,2.751-1.14S7.976,2.028,8.71,2.762c1.518,1.517,1.518,3.986,0,5.502
					C7.976,8.999,6.999,9.404,5.959,9.404z M5.959,2.018c-0.934,0-1.812,0.364-2.472,1.024c-1.362,1.362-1.362,3.58,0,4.943
					c0.66,0.66,1.538,1.023,2.472,1.023s1.812-0.364,2.472-1.024c1.362-1.362,1.362-3.58,0-4.943
					C7.771,2.382,6.893,2.018,5.959,2.018z"/>
			</g>
			<g>
				<path fill="#39AADC" d="M10.576,11.4c-0.051,0-0.102-0.019-0.14-0.058L8.828,9.733c-0.077-0.077-0.077-0.202,0-0.28
					c0.076-0.077,0.203-0.077,0.279,0l1.469,1.469l0.793-0.792L9.9,8.661c-0.077-0.077-0.077-0.202,0-0.28
					c0.076-0.077,0.203-0.078,0.279,0l1.608,1.609c0.077,0.077,0.077,0.202,0,0.28l-1.072,1.072
					C10.677,11.381,10.626,11.4,10.576,11.4z"/>
			</g>
			<g>
				<path fill="#39AADC" d="M13.466,14.944c-0.051,0-0.102-0.019-0.14-0.058l-3.217-3.217c-0.077-0.077-0.077-0.202,0-0.279
					l1.725-1.726c0.074-0.074,0.205-0.074,0.279,0l3.218,3.217c0.037,0.037,0.059,0.088,0.059,0.14s-0.021,0.103-0.059,0.14
					l-1.726,1.725C13.568,14.925,13.517,14.944,13.466,14.944z M10.529,11.529l2.938,2.938l1.445-1.445l-2.938-2.938L10.529,11.529z
					"/>
			</g>
			<g>
				<path fill="#39AADC" d="M11.788,13.265c-0.051,0-0.102-0.019-0.14-0.058c-0.077-0.078-0.077-0.203,0-0.28l1.655-1.656
					c0.076-0.077,0.203-0.077,0.279,0c0.077,0.078,0.077,0.203,0,0.28l-1.655,1.656C11.889,13.246,11.838,13.265,11.788,13.265z"/>
			</g>
			<g>
				<path fill="#39AADC" d="M11.019,12.496c-0.051,0-0.102-0.019-0.14-0.058c-0.077-0.078-0.077-0.203,0-0.28l1.655-1.656
					c0.076-0.077,0.203-0.077,0.279,0c0.077,0.078,0.077,0.203,0,0.28l-1.655,1.656C11.121,12.476,11.07,12.496,11.019,12.496z"/>
			</g>
		</g>
	</g>
</g>
</svg>
