<?xml version="1.0" encoding="utf-8"?>
<!-- Generator: Adobe Illustrator 17.0.0, SVG Export Plug-In . SVG Version: 6.00 Build 0)  -->
<!DOCTYPE svg PUBLIC "-//W3C//DTD SVG 1.1//EN" "http://www.w3.org/Graphics/SVG/1.1/DTD/svg11.dtd">
<svg version="1.1" id="Calque_1" xmlns="http://www.w3.org/2000/svg" xmlns:xlink="http://www.w3.org/1999/xlink" x="0px" y="0px"
	 width="100.587px" height="39px" viewBox="0 0 100.587 39" enable-background="new 0 0 100.587 39" xml:space="preserve">
<g>
	<path fill="#5E5E5E" d="M0.167-0.333h98.266c0.935,0,1.734,1.099,1.734,2.033v35.535c0,0.935-0.799,1.431-1.734,1.431H0.167V-0.333
		z"/>
	<g>
		<path fill="#FFFFFF" d="M30.485,15.727h1.734c0.087,0,0.205,0.004,0.355,0.011c0.148,0.008,0.31,0.03,0.484,0.067
			c0.175,0.037,0.352,0.096,0.532,0.177c0.18,0.082,0.342,0.199,0.485,0.354c0.142,0.154,0.26,0.35,0.354,0.586
			c0.093,0.236,0.14,0.524,0.14,0.862c0,0.377-0.055,0.686-0.163,0.93c-0.108,0.243-0.245,0.44-0.41,0.591
			c-0.165,0.152-0.347,0.264-0.545,0.338c-0.198,0.074-0.389,0.126-0.569,0.155l1.921,3.76h-0.699l-1.856-3.716h-1.147v3.716h-0.615
			V15.727z M31.101,19.178h1.306c0.324,0,0.585-0.048,0.787-0.144c0.202-0.095,0.36-0.213,0.472-0.354
			c0.112-0.14,0.187-0.291,0.228-0.454c0.04-0.162,0.06-0.309,0.06-0.443c0-0.133-0.02-0.28-0.06-0.442
			c-0.042-0.163-0.117-0.314-0.228-0.454c-0.112-0.14-0.27-0.258-0.472-0.354c-0.202-0.095-0.464-0.143-0.787-0.143h-1.306V19.178z"
			/>
		<path fill="#FFFFFF" d="M36.013,15.727h4.037v0.664h-3.422v2.787h3.208v0.664h-3.208v3.053h3.572v0.664h-4.187V15.727z"/>
		<path fill="#FFFFFF" d="M46.978,22.33c-0.317,0.509-0.684,0.874-1.101,1.094c-0.417,0.222-0.867,0.332-1.352,0.332
			c-0.504,0-0.964-0.102-1.384-0.304c-0.419-0.203-0.779-0.487-1.077-0.852c-0.299-0.365-0.53-0.8-0.699-1.305
			c-0.168-0.504-0.252-1.056-0.252-1.653s0.083-1.146,0.252-1.648c0.168-0.502,0.4-0.935,0.699-1.3
			c0.299-0.365,0.659-0.651,1.077-0.857c0.42-0.207,0.88-0.31,1.384-0.31c0.449,0,0.865,0.094,1.254,0.283
			c0.389,0.188,0.729,0.503,1.021,0.946l-0.502,0.498c-0.205-0.369-0.469-0.638-0.789-0.808c-0.32-0.169-0.647-0.254-0.984-0.254
			c-0.429,0-0.815,0.088-1.161,0.266c-0.345,0.177-0.639,0.42-0.88,0.73c-0.242,0.31-0.429,0.675-0.559,1.095
			c-0.132,0.421-0.197,0.874-0.197,1.361c0,0.487,0.065,0.941,0.197,1.361c0.13,0.42,0.317,0.785,0.559,1.095
			c0.242,0.309,0.535,0.553,0.88,0.73c0.345,0.177,0.732,0.265,1.161,0.265c0.168,0,0.342-0.023,0.522-0.072
			c0.18-0.048,0.357-0.122,0.527-0.222c0.172-0.098,0.335-0.223,0.49-0.375c0.155-0.152,0.292-0.334,0.41-0.547L46.978,22.33z"/>
		<path fill="#FFFFFF" d="M48.105,15.727h0.615v3.451h3.691v-3.451h0.617v7.831h-0.617v-3.716h-3.691v3.716h-0.615V15.727z"/>
		<path fill="#FFFFFF" d="M54.837,15.727h4.039v0.664h-3.422v2.787h3.208v0.664h-3.208v3.053h3.572v0.664h-4.189V15.727z"/>
		<path fill="#FFFFFF" d="M60.366,15.727h1.734c0.087,0,0.203,0.004,0.354,0.011c0.15,0.008,0.31,0.03,0.484,0.067
			c0.177,0.037,0.354,0.096,0.534,0.177c0.18,0.082,0.34,0.199,0.484,0.354c0.143,0.154,0.26,0.35,0.354,0.586
			c0.093,0.236,0.14,0.524,0.14,0.862c0,0.377-0.053,0.686-0.163,0.93c-0.107,0.243-0.243,0.44-0.41,0.591
			c-0.163,0.152-0.347,0.264-0.544,0.338c-0.2,0.074-0.39,0.126-0.57,0.155l1.921,3.76h-0.697l-1.858-3.716H60.98v3.716h-0.614
			V15.727z M60.98,19.178h1.307c0.324,0,0.584-0.048,0.787-0.144c0.2-0.095,0.36-0.213,0.47-0.354
			c0.113-0.14,0.187-0.291,0.23-0.454c0.04-0.162,0.06-0.309,0.06-0.443c0-0.133-0.02-0.28-0.06-0.442
			c-0.043-0.163-0.117-0.314-0.23-0.454c-0.11-0.14-0.27-0.258-0.47-0.354c-0.203-0.095-0.464-0.143-0.787-0.143H60.98V19.178z"/>
		<path fill="#FFFFFF" d="M71.329,22.33c-0.317,0.509-0.684,0.874-1.101,1.094c-0.417,0.222-0.867,0.332-1.351,0.332
			c-0.504,0-0.964-0.102-1.384-0.304c-0.42-0.203-0.78-0.487-1.077-0.852c-0.3-0.365-0.53-0.8-0.7-1.305
			c-0.167-0.504-0.25-1.056-0.25-1.653s0.083-1.146,0.25-1.648c0.17-0.502,0.4-0.935,0.7-1.3c0.297-0.365,0.657-0.651,1.077-0.857
			c0.42-0.207,0.881-0.31,1.384-0.31c0.447,0,0.864,0.094,1.254,0.283c0.387,0.188,0.727,0.503,1.021,0.946l-0.504,0.498
			c-0.203-0.369-0.467-0.638-0.787-0.808c-0.32-0.169-0.647-0.254-0.984-0.254c-0.43,0-0.817,0.088-1.161,0.266
			c-0.347,0.177-0.64,0.42-0.881,0.73c-0.243,0.31-0.43,0.675-0.56,1.095c-0.13,0.421-0.197,0.874-0.197,1.361
			c0,0.487,0.067,0.941,0.197,1.361c0.13,0.42,0.317,0.785,0.56,1.095c0.24,0.309,0.534,0.553,0.881,0.73
			c0.344,0.177,0.73,0.265,1.161,0.265c0.167,0,0.34-0.023,0.52-0.072c0.18-0.048,0.357-0.122,0.527-0.222
			c0.173-0.098,0.337-0.223,0.49-0.375c0.157-0.152,0.293-0.334,0.41-0.547L71.329,22.33z"/>
		<path fill="#FFFFFF" d="M72.457,15.727h0.617v3.451h3.692v-3.451h0.614v7.831h-0.614v-3.716h-3.692v3.716h-0.617V15.727z"/>
		<path fill="#FFFFFF" d="M79.187,15.727h4.039v0.664h-3.422v2.787h3.208v0.664h-3.208v3.053h3.572v0.664h-4.189V15.727z"/>
		<path fill="#FFFFFF" d="M84.717,15.727h1.734c0.087,0,0.207,0.004,0.357,0.011c0.147,0.008,0.31,0.03,0.484,0.067
			c0.173,0.037,0.35,0.096,0.53,0.177c0.18,0.082,0.344,0.199,0.487,0.354c0.14,0.154,0.26,0.35,0.354,0.586
			c0.093,0.236,0.14,0.524,0.14,0.862c0,0.377-0.057,0.686-0.163,0.93c-0.11,0.243-0.247,0.44-0.41,0.591
			c-0.167,0.152-0.347,0.264-0.547,0.338c-0.197,0.074-0.387,0.126-0.567,0.155l1.921,3.76h-0.7l-1.854-3.716h-1.147v3.716h-0.617
			V15.727z M85.334,19.178h1.304c0.324,0,0.587-0.048,0.787-0.144c0.203-0.095,0.36-0.213,0.474-0.354
			c0.11-0.14,0.187-0.291,0.227-0.454c0.04-0.162,0.06-0.309,0.06-0.443c0-0.133-0.02-0.28-0.06-0.442
			c-0.04-0.163-0.117-0.314-0.227-0.454c-0.113-0.14-0.27-0.258-0.474-0.354c-0.2-0.095-0.464-0.143-0.787-0.143h-1.304V19.178z"/>
	</g>
	<g>
		<g>
			<path fill="#FFFFFF" d="M14.821,23.514c-1.578,0-3.06-0.615-4.176-1.731c-2.303-2.302-2.303-6.049,0-8.351
				c1.116-1.116,2.598-1.73,4.176-1.73s3.06,0.615,4.176,1.73c2.303,2.302,2.303,6.049,0,8.351
				C17.881,22.899,16.398,23.514,14.821,23.514z M14.821,12.15c-1.457,0-2.828,0.568-3.859,1.598c-2.128,2.128-2.128,5.59,0,7.718
				c1.031,1.031,2.401,1.599,3.859,1.599s2.828-0.569,3.859-1.599c2.128-2.128,2.128-5.59,0-7.718
				C17.649,12.718,16.278,12.15,14.821,12.15z"/>
		</g>
		<g>
			<path fill="#FFFFFF" d="M14.821,22.019c-1.178,0-2.285-0.459-3.118-1.292c-0.833-0.833-1.292-1.94-1.292-3.118
				s0.459-2.285,1.292-3.118c0.833-0.833,1.94-1.292,3.118-1.292s2.285,0.459,3.118,1.292c0.833,0.833,1.292,1.94,1.292,3.118
				s-0.459,2.285-1.292,3.118C17.107,21.56,15.999,22.019,14.821,22.019z M14.821,13.646c-1.058,0-2.053,0.413-2.802,1.161
				c-0.748,0.749-1.161,1.743-1.161,2.802c0,1.059,0.413,2.054,1.161,2.802c0.749,0.749,1.743,1.161,2.802,1.161
				c1.059,0,2.054-0.413,2.802-1.161c0.748-0.748,1.161-1.743,1.161-2.802c0-1.058-0.413-2.053-1.161-2.802
				C16.874,14.058,15.88,13.646,14.821,13.646z"/>
		</g>
		<g>
			<path fill="#FFFFFF" d="M20.054,24.28c-0.058,0-0.115-0.022-0.158-0.065l-1.824-1.823c-0.088-0.087-0.088-0.229,0-0.317
				c0.087-0.088,0.23-0.088,0.317,0l1.665,1.664l0.9-0.899l-1.666-1.665c-0.088-0.088-0.088-0.229,0-0.317
				c0.087-0.088,0.23-0.088,0.317,0l1.824,1.824c0.043,0.042,0.066,0.098,0.066,0.158s-0.023,0.117-0.066,0.158l-1.217,1.216
				C20.169,24.258,20.111,24.28,20.054,24.28z"/>
		</g>
		<g>
			<path fill="#FFFFFF" d="M23.331,28.297c-0.059,0-0.117-0.023-0.158-0.065l-3.647-3.647c-0.088-0.087-0.088-0.23,0-0.317
				l1.955-1.956c0.083-0.083,0.233-0.083,0.317,0l3.648,3.647c0.043,0.042,0.066,0.098,0.066,0.158s-0.023,0.117-0.066,0.158
				l-1.956,1.956C23.448,28.274,23.391,28.297,23.331,28.297z M20.001,24.427l3.33,3.33l1.639-1.639l-3.331-3.33L20.001,24.427z"/>
		</g>
		<g>
			<path fill="#FFFFFF" d="M21.429,26.394c-0.058,0-0.115-0.022-0.158-0.065c-0.088-0.087-0.088-0.23,0-0.317l1.876-1.876
				c0.087-0.087,0.23-0.087,0.317,0c0.088,0.087,0.088,0.23,0,0.317l-1.876,1.876C21.544,26.373,21.486,26.394,21.429,26.394z"/>
		</g>
		<g>
			<path fill="#FFFFFF" d="M20.556,25.522c-0.058,0-0.115-0.022-0.158-0.065c-0.088-0.087-0.088-0.23,0-0.317l1.876-1.876
				c0.087-0.087,0.23-0.087,0.317,0c0.088,0.087,0.088,0.23,0,0.317l-1.876,1.876C20.671,25.501,20.614,25.522,20.556,25.522z"/>
		</g>
	</g>
</g>
</svg>
