<?xml version="1.0" encoding="utf-8"?>
<!-- Generator: Adobe Illustrator 17.0.0, SVG Export Plug-In . SVG Version: 6.00 Build 0)  -->
<!DOCTYPE svg PUBLIC "-//W3C//DTD SVG 1.1//EN" "http://www.w3.org/Graphics/SVG/1.1/DTD/svg11.dtd">
<svg version="1.1" id="Calque_1" xmlns="http://www.w3.org/2000/svg" xmlns:xlink="http://www.w3.org/1999/xlink" x="0px" y="0px"
	 width="8.5px" height="8.375px" viewBox="3.328 4.896 8.5 8.375" enable-background="new 3.328 4.896 8.5 8.375"
	 xml:space="preserve">
<path fill="#727270" d="M7.552,5.095c-2.209,0-3.999,1.791-3.999,3.999c0,2.209,1.791,3.999,3.999,3.999
	c2.209,0,3.999-1.791,3.999-3.999C11.551,6.886,9.761,5.095,7.552,5.095z M8.709,9.187c0.357,0.356,0.713,0.713,1.07,1.07
	c0.219,0.22,0.22,0.512,0.002,0.732c-0.112,0.113-0.224,0.226-0.338,0.337c-0.219,0.215-0.509,0.214-0.726-0.003
	c-0.366-0.366-0.733-0.732-1.098-1.099c-0.02-0.021-0.033-0.05-0.048-0.075c-0.012,0.001-0.024,0.001-0.035,0.002
	c-0.019,0.027-0.034,0.057-0.056,0.08c-0.364,0.365-0.728,0.729-1.093,1.093c-0.216,0.216-0.508,0.216-0.726,0.001
	c-0.115-0.114-0.23-0.228-0.343-0.343c-0.21-0.213-0.209-0.508,0.004-0.72c0.375-0.376,0.751-0.751,1.127-1.127
	C6.459,9.124,6.47,9.111,6.501,9.076C6.467,9.053,6.428,9.034,6.4,9.006C6.041,8.649,5.682,8.29,5.324,7.932
	c-0.217-0.217-0.22-0.505-0.006-0.726c0.115-0.118,0.231-0.235,0.349-0.349c0.215-0.208,0.509-0.205,0.721,0.007
	C6.756,7.232,7.124,7.6,7.492,7.968C7.51,7.987,7.53,8.005,7.552,8.026c0.021-0.019,0.038-0.035,0.055-0.052
	C7.975,7.606,8.343,7.238,8.711,6.87c0.223-0.223,0.515-0.223,0.737,0c0.112,0.112,0.225,0.225,0.337,0.338
	c0.212,0.213,0.212,0.508,0.001,0.719c-0.36,0.361-0.721,0.721-1.082,1.081C8.677,9.036,8.65,9.066,8.613,9.104
	C8.648,9.134,8.68,9.158,8.709,9.187z"/>
</svg>
