<?xml version="1.0" encoding="utf-8"?>
<!-- Generator: Adobe Illustrator 17.0.0, SVG Export Plug-In . SVG Version: 6.00 Build 0)  -->
<!DOCTYPE svg PUBLIC "-//W3C//DTD SVG 1.1//EN" "http://www.w3.org/Graphics/SVG/1.1/DTD/svg11.dtd">
<svg version="1.1" id="Calque_1" xmlns="http://www.w3.org/2000/svg" xmlns:xlink="http://www.w3.org/1999/xlink" x="0px" y="0px"
	 width="11.931px" height="10.922px" viewBox="0 0 11.931 10.922" enable-background="new 0 0 11.931 10.922" xml:space="preserve">
<g>
	<g>
		<g>
			<path fill="#39AADC" d="M10.528,9.4c0-2.181,0-4.357,0-6.571c-0.092,0-0.183,0-0.274,0c-0.796,0-1.591,0-2.387,0
				c-0.061,0-0.121,0.003-0.182-0.001c-0.189-0.012-0.317-0.102-0.323-0.3c-0.006-0.205,0.13-0.296,0.315-0.302
				c0.294-0.01,0.588-0.004,0.882-0.004c0.718,0,1.436-0.002,2.154,0.001c0.328,0.001,0.416,0.09,0.416,0.415
				c0.001,2.327,0.001,4.653,0,6.98c0,0.317-0.08,0.398-0.402,0.398c-3.131,0.001-6.262,0.001-9.393,0
				c-0.323,0-0.399-0.077-0.399-0.399c-0.001-2.335-0.001-4.671,0-7.006c0-0.291,0.093-0.386,0.39-0.388
				c0.986-0.004,1.972-0.003,2.958,0C4.54,2.224,4.696,2.344,4.679,2.531c-0.023,0.241-0.192,0.3-0.406,0.299
				c-0.814-0.002-1.627-0.001-2.44-0.001c-0.094,0-0.187,0-0.296,0c0,2.197,0,4.373,0,6.571C4.527,9.4,7.52,9.4,10.528,9.4z"/>
			<path fill="#39AADC" d="M6.45,7.088c0.376-0.406,0.749-0.816,1.13-1.216c0.207-0.218,0.375-0.245,0.505-0.093
				C8.252,5.972,8.142,6.124,7.996,6.27C7.404,6.865,6.815,7.462,6.225,8.058c-0.127,0.128-0.28,0.127-0.394,0.014
				c-0.627-0.62-1.25-1.245-1.855-1.887C3.911,6.116,3.927,5.887,3.994,5.8C4.1,5.662,4.278,5.696,4.405,5.821
				C4.768,6.18,5.127,6.543,5.488,6.904C5.553,6.969,5.621,7.03,5.727,7.129c0-0.143,0-0.235,0-0.327c0-1.921,0-3.841,0-5.762
				c0-0.078-0.028-0.177,0.009-0.229C5.813,0.704,5.922,0.553,6.023,0.55c0.098-0.004,0.22,0.14,0.297,0.245
				c0.042,0.057,0.016,0.167,0.016,0.254c0.001,1.895,0,3.789,0,5.684c0,0.093,0,0.185,0,0.278C6.374,7.036,6.412,7.062,6.45,7.088z
				"/>
		</g>
	</g>
</g>
</svg>
