<?xml version="1.0" encoding="utf-8"?>
<!-- Generator: Adobe Illustrator 17.0.0, SVG Export Plug-In . SVG Version: 6.00 Build 0)  -->
<!DOCTYPE svg PUBLIC "-//W3C//DTD SVG 1.1//EN" "http://www.w3.org/Graphics/SVG/1.1/DTD/svg11.dtd">
<svg version="1.1" id="Calque_1" xmlns="http://www.w3.org/2000/svg" xmlns:xlink="http://www.w3.org/1999/xlink" x="0px" y="0px"
	 width="12.792px" height="7.375px" viewBox="0 0 12.792 7.375" enable-background="new 0 0 12.792 7.375" xml:space="preserve">
<g>
	<g>
		<g>
			<g>
				<path fill="#727270" d="M12,3.463c-0.023-0.029-0.578-0.726-1.53-1.425C9.198,1.103,7.814,0.609,6.467,0.609
					c-1.347,0-2.731,0.494-4.003,1.428c-0.952,0.699-1.507,1.396-1.53,1.425L0.738,3.711L0.934,3.96
					c0.023,0.029,0.578,0.726,1.53,1.425C3.737,6.32,5.121,6.814,6.467,6.814c1.346,0,2.73-0.494,4.003-1.429
					C11.422,4.686,11.977,3.99,12,3.96l0.197-0.249L12,3.463z M6.467,5.885c-1.199,0-2.174-0.975-2.174-2.174
					c0-0.188,0.024-0.37,0.069-0.544L3.866,3.084C3.818,3.285,3.792,3.495,3.792,3.711c0,0.774,0.331,1.472,0.858,1.961
					C3.971,5.422,3.394,5.07,2.958,4.752c-0.54-0.394-0.944-0.793-1.175-1.041c0.231-0.248,0.635-0.646,1.175-1.041
					C3.394,2.353,3.971,2.001,4.65,1.75l0.333,0.375c0.389-0.364,0.911-0.587,1.484-0.587c1.198,0,2.173,0.975,2.173,2.173
					S7.666,5.885,6.467,5.885L6.467,5.885z M9.976,4.752C9.54,5.07,8.963,5.422,8.284,5.673c0.527-0.489,0.858-1.187,0.858-1.961
					c0-0.774-0.331-1.472-0.858-1.961C8.963,2.001,9.54,2.353,9.976,2.671c0.54,0.394,0.944,0.793,1.175,1.041
					C10.92,3.959,10.516,4.358,9.976,4.752L9.976,4.752z M9.976,4.752"/>
			</g>
		</g>
		<g>
			<g>
				<path fill="#727270" d="M5.084,3.289C5.043,3.423,5.021,3.564,5.021,3.711c0,0.799,0.647,1.446,1.446,1.446
					c0.799,0,1.446-0.647,1.446-1.446S7.266,2.265,6.467,2.265c-0.389,0-0.742,0.154-1.002,0.404l0.713,0.804L5.084,3.289z
					 M5.084,3.289"/>
			</g>
		</g>
	</g>
</g>
</svg>
